# xmcd CD database file
#
# Track frame offsets:
#	150
#	15607
#	35600
#	55807
#	73545
#	92062
#	111910
#	127100
#	145112
#	164962
#
# Disc length: 2461 seconds
#
# Revision: 2
# Processed by: cddbd v1.5PL3 Copyright (c) Steve Scherf et al.
# Submitted via: CDex 1.51
#
DISCID=91099b0a
DTITLE=南翔子 - Shangri-La (シャングリラ)
DYEAR=1985
DGENRE=JPop
TTITLE0=摩訶不思議恋月夜
TTITLE1=渚のセパレーション
TTITLE2=吐息・エンドレス
TTITLE3=Good Luck ”永遠より愛をこめて”
TTITLE4=泣きまね
TTITLE5=茉莉花・夜(ジャスミン・ナイト)
TTITLE6=殿方ごめん遊ばせ
TTITLE7=誰にも言えない
TTITLE8=ルージュの置手紙
TTITLE9=ハーフムーンはときめき色
EXTD=YEAR: 1985
EXTT0=
EXTT1=
EXTT2=
EXTT3=
EXTT4=
EXTT5=
EXTT6=
EXTT7=
EXTT8=
EXTT9=
PLAYORDER=
